<?xml version="1.0" encoding="UTF-8" standalone="no"?>
<svg xmlns:rdf="http://www.w3.org/1999/02/22-rdf-syntax-ns#" xmlns="http://www.w3.org/2000/svg" xml:space="preserve" overflow="visible" height="108.44" width="87.041" version="1.1" enable-background="new 0 0 87.041 108.445" xmlns:cc="http://creativecommons.org/ns#" xmlns:dc="http://purl.org/dc/elements/1.1/" viewBox="0 0 87.041 108.445"><g fill="#a80030"><path d="m51.986 57.297c-0.48779 2.6676 7.6504-0.65084 1.953 0.07941l-0.978-0.012-0.975-0.067z"/><path d="m61.631 54.893c1.5573-2.0351 2.7282-6.0523 0.68782-1.7555-3.1879 2.7686 1.5134-5.0903-1.29-0.60689-0.72348 0.8295-0.45582 1.9758 0.60221 2.3624z"/><path d="m65.191 45.629c0.89662-3.6963-2.0966-0.19906-0.09885 0.1783l0.0989-0.17794-0.00005-0.00036z"/><path d="m45.172 1.399c3.1343 0.81194 2.8436-0.13345 0 0z"/><path d="m47.088 1.932c-0.22704 0.055054-0.22704 0.055054 0 0z"/><path d="m76.992 46.856c0.6125 4.4419-3.4502 7.712-4.7706 11.614-2.1016 3.2256-5.7836 4.341-7.5696 5.3478-4.0626 3.1821-9.9492 3.9215-14.998 2.5288-7.508-2.394-13.486-9.814-13.245-17.84-1.582-2.965 1.228-9.249 4.193-11.965 5.404-5.282 14.756-6.208 20.686-1.277-5.382-7.12-17.385-7.162-22.704 0.057-3.484 4.235-6.227 9.474-5.553 15.161 0.1189 7.5037 5.9631 13.194 11.625 17.331-1.7561 2.9097-9.3218-7.543-4.8046-1.465 2.5969 3.832-8.0364-8.3143-3.3312-2.1125 5.2603 5.639 13.384 9.8042 21.187 7.9552-4.065-0.38953-9.1647 0.22822-12.384-3.2197 3.2238-0.16944 10.429 2.5242 15.135 0.61538 5.8935-1.238 11.24-4.5854 15.107-9.1777 0.83808 4.1605 0.56365-6.6767 3.254-2.4326 0.5085-2.7763 3.3772-10.022 3.5648-9.5005-0.0042 2.2897-0.63599 4.0285 0.12928 0.83987-0.5301-1.9394 0.34131-4.6922 0.7288-1.6009 1.4146-4.8672 0.81738-9.3247-0.82135-13.867 2.9226 2.6023 0.1521-4.9168-1.4546-5.7988 0.82452-5.0424 5.0667 2.0721 4.8315 4.4907 0.52284 2.6379 1.8648 5.6926 0.66902 1.3423-1.981-3.635-0.903-6.939-1.605-9.553-3.075-7.235-8.797-13.266-15.635-17.09 3.044 4.052-3.222-3.342-5.289-1.2915-5.166-0.9026-9.827-4.6247-15.115-3.4535-1.534 0.8912-6.876 0.285-2.409-0.4196-1.544-0.155-8.697 0.5698-3.947-1.302-9.427 0.3351-17.543 5.7499-25.082 10.853-4.84 3.71-7.6429 9.159-10.474 14.393-3.6182 4.538-5.9716 10.769-6.107 16.694 0.03763 10.691-0.76437 21.887 3.7708 31.914 6.438 16.02 20.165 30.134 37.555 33.426 2.1153 0.39822 10.507 0.60222 4.0703-0.34149-4.2337 0.33986-10.592-4.8315-11.246-5.6518-0.37808 1.3618-5.7745-2.1622-5.9069-4.2827-4.0974-2.256-6.8371-5.6939-9.5617-9.2904-2.858-2.84-2.215-5.063-4.262-7.586-0.096-2.104-3.374-6.259-0.41-5.229-2.303-4.136-7.5887-6.026-7.2708-11.31-0.4805-5.13-2.3309-9.951-1.2074-15.194 0.0276-5.581 1.7179-10.641 4.0742-15.61 2.078-6.044 7.656-11.076 13.543-13.574 3.3374-1.3434-1.3131-0.20794 0.94248-1.7729 1.5458-2.0926 8.5271-2.9033 7.7154-3.3247-1.1375-0.84341 5.4559-3.1413 7.3629-3.7453 2.6827-0.99116 2.0549 0.64817-0.07585 0.89492 9.9874-3.4466 22.01-0.38649 28.941 7.6606 7.2426 7.5253 9.3799 18.81 7.3671 28.821l0.3945-0.8305 0.3945-0.8305-0.00083 0.0004z"/><path d="m32.372 59.764c-1.2701 2.3388 5.1625 7.5952 1.8362 3.2074-0.6549-1.0438-1.2716-2.112-1.8362-3.2074z"/><path d="m35.164 59.654c-2.2798-4.0282-0.07545 1.0886 0.46366 1.3667-0.155-0.456-0.309-0.911-0.464-1.367z"/><path d="m84.568 48.916c-0.474 3.048-2.555 9.449-3.072 10.032 1.578-3.14 2.618-6.548 3.072-10.032z"/><path d="m45.527 0.537c2.496-0.4345 4.973-0.58251 1.071-0.27276-0.279 0.04334-3.043 0.11065-1.071 0.27276z"/><path d="m2.872 23.219c-1.5041 3.268 1.084 2.484 0.6963 0.265-0.2077 0.161-0.7522 0.118-0.6963-0.265z"/><path d="m0 35.215c1.5091-3.134-0.12436-4.073-0.0082938-0.602 0.0027646 0.201 0.0055292 0.401 0.0082938 0.602z"/></g></svg>
