<?xml version="1.0" encoding="UTF-8" standalone="no"?>
<svg xmlns:rdf="http://www.w3.org/1999/02/22-rdf-syntax-ns#" xmlns="http://www.w3.org/2000/svg" version="1.1" xmlns:cc="http://creativecommons.org/ns#" xmlns:dc="http://purl.org/dc/elements/1.1/" viewBox="0 0 30 30">
 <path fill="#fff" d="m27.493 22.936c-1.501-0.32566-3.1801-0.33181-4.5742 0.346-0.14065 1.2044-2.1508 1.0192-2.6027 2.3147-0.33234 0.58673-2.3652 1.0632-1.1627 0.03167 0.6309-1.1542 1.6414-2.0786 2.1346-3.3074-0.06493-0.86173 0.63097-2.0372 0.39402-2.6552-1.296 0.73893-2.669-0.20063-3.9683 0.3267-1.476-0.641-3.182 0.693-4.649-0.223-1.269-0.342-1.696-2.66-3.0949-1.758-0.6467-1.024-2.3692-2.81-3.2648-0.958-0.5279 1.455 1.7001 2.199 1.6139 3.256-1.7985 0.838-2.4098-2.661-4.2821-1.017-0.9336 0.384-1.9494 0.343-2.9371 0.341 1.8698 5.779 7.6141 10.004 13.693 10.036 5.029 0.152 9.996-2.494 12.7-6.733z"/>
 <path d="m27.493 22.938c-1.5006-0.32833-3.1797-0.33171-4.5742 0.34462-0.13982 1.205-2.1499 1.0194-2.6027 2.3142-0.33282 0.58708-2.3654 1.0656-1.1627 0.03183 0.63067-1.1541 1.6414-2.078 2.1346-3.3066-0.06509-0.86211 0.63101-2.0359 0.39402-2.6554-1.2962 0.73692-2.6693-0.19998-3.9683 0.32684-1.4752-0.64208-3.1815 0.69138-4.6484-0.22442-1.269-0.34-1.697-2.66-3.0949-1.757-0.6462-1.024-2.3693-2.811-3.2648-0.958-0.52762 1.4543 1.7005 2.199 1.6139 3.2566-1.7985 0.836-2.4099-2.662-4.2821-1.019-0.9335 0.384-1.9493 0.345-2.9371 0.341-1.9007-5.418-0.22736-11.837 4.0678-15.642 4.2544-3.9678 10.927-4.9711 16.168-2.4555 5.2 2.3572 8.708 7.9443 8.524 13.658-0.043 2.735-0.873 5.45-2.367 7.744z"/>
 <path d="m18.348 21.584c0.59928 1.695-2.4126 1.3288-2.521 0.36 0.79998-0.94597 1.7902 0.96608 2.521-0.36z"/>
 <path fill="#e93442" d="m13.947 7.185c-1.251-0.4355-2.545 1.6257-3.246 0.025-1.286-0.3585-0.227-2.4252 0.6-1.0521 0.95438 0.55339 3.3716-0.62608 3.395 0.85575-0.228 0.1303-0.494 0.147-0.749 0.1714zm1.792-2.817c0.673-0.5626 2.203-0.6418 3.145-0.2205 1.558 1.0704-1.62 1.8033-2.087 1.0925 1.153-0.0321 1.096-1.1623-0.114-0.9351-0.316-0.0081-0.632 0.014-0.944 0.0631zm7.69 6.621c0.10537 0.86716-2.1332 2.4299-1.0515 0.81812 0.727-1.364-0.171-2.865-0.572-4.19-0.661-1.4419-1.145-3.2177-2.608-4.0538-1.433-0.7738-2.992-0.112-4.45 0.146-1.582 0.1496-3.408-0.9446-4.7941 0.2599-0.8823 1.1208-0.8728 2.6787-1.235 4.0145-0.0172 1.5824 1.8891 2.0404 3.1021 2.4094 1.2347 0.42121 2.859 0.2667 3.7244 1.39-0.11136 0.93893 1.9357 2.3319 0.06685 2.1226-2.318-0.406-4.646-1.15-6.6192-2.455-1.0711-0.417-0.8871-1.9437-1.014-2.3996-1.4901-0.0863-3.314-0.1677-4.3922 1.0546-0.78996 1.3502 0.64804 2.639 1.5873 3.4694 3.1796 2.5109 7.0423 4.1164 10.995 4.9245 3.1517 0.50632 6.7571 0.52744 9.436-1.4538 1.4122-1.0298 2.2253-3.3724 0.72286-4.689-0.79368-0.74455-1.8567-1.1265-2.8988-1.368z"/>
</svg>
