<?xml version="1.0" encoding="utf-8"?>
<!DOCTYPE svg PUBLIC "-//W3C//DTD SVG 1.1//EN" "http://www.w3.org/Graphics/SVG/1.1/DTD/svg11.dtd">
<svg version="1.1"
	 id="Layer_1" xmlns:cc="http://creativecommons.org/ns#" xmlns:dc="http://purl.org/dc/elements/1.1/" xmlns:rdf="http://www.w3.org/1999/02/22-rdf-syntax-ns#"
	 xmlns="http://www.w3.org/2000/svg" xmlns:xlink="http://www.w3.org/1999/xlink" x="0px" y="0px" width="533.437px"
	 height="171.263px" viewBox="31.434 337.107 533.437 171.263" enable-background="new 31.434 337.107 533.437 171.263"
	 xml:space="preserve">
<g id="g3065" transform="matrix(0.14385089,0,0,0.14385089,-4.228137,-4.7136996)">
	<g id="g3067">
		<path id="path3069" d="M1432.482,3263.281h5.358l8.103,13.295h5.225l-8.764-13.559c4.564-0.529,8.003-2.943,8.003-8.4
			c0-6.118-3.605-8.731-10.847-8.731h-11.707v30.69h4.63L1432.482,3263.281L1432.482,3263.281z M1432.482,3259.344v-9.524h6.35
			c3.241,0,6.714,0.728,6.714,4.531c0,4.696-3.506,5.027-7.474,5.027h-5.589L1432.482,3259.344z"/>
		<path id="path3071" d="M1468.067,3261.264c0,16.569-13.493,30.062-30.095,30.062s-30.095-13.493-30.095-30.062
			c0-16.602,13.493-30.095,30.095-30.095C1454.606,3231.168,1468.067,3244.662,1468.067,3261.264z M1437.972,3236.493
			c-13.691,0-24.77,11.079-24.77,24.803c0,13.658,11.079,24.671,24.77,24.671c13.658,0,24.737-11.046,24.737-24.671
			C1462.709,3247.572,1451.63,3236.493,1437.972,3236.493z"/>
		<path id="path3073" fill="#FFFFFF" d="M1271.062,3286.464c-42.1,0-80.429,7.276-108.672,19.082
			c-3.109,1.554-5.324,4.795-5.324,8.5c0,1.356,0.331,2.712,0.86,3.902c3.34,9.69-2.15,20.174-29.499,26.192
			c-40.545,8.896-66.142,50.764-80.793,64.654c-17.197,16.337-65.778,26.358-58.47,16.635c5.721-7.606,27.581-31.351,40.876-57.015
			c11.906-22.951,22.488-29.466,37.073-51.359c4.266-6.416,20.868-28.97,25.696-46.796c5.424-17.396,3.605-39.255,5.655-48.251
			c2.976-12.997,15.246-41.14,16.139-57.014c0.529-8.995-37.536,12.832-55.593,12.832c-18.057,0-35.651-10.847-51.789-11.608
			c-19.975-0.926-32.807,15.411-50.896,12.567c-10.318-1.654-19.016-10.748-37.04-11.409c-25.663-0.926-57.048,14.287-115.98,12.368
			c-57.974-1.885-111.516-73.285-118.824-84.629c-8.565-13.295-19.016-13.295-30.425-2.844s-25.465,2.216-29.466-4.795
			c-7.606-13.295-27.945-52.153-59.429-60.322c-43.555-11.277-65.58,24.109-62.736,52.252c2.91,28.573,21.364,36.61,29.929,51.789
			c8.532,15.213,12.931,25.002,29.036,31.715c11.41,4.795,15.643,11.806,12.269,21.166c-2.976,8.169-14.849,10.021-22.654,10.417
			c-16.602,0.793-28.21-3.704-36.709-9.128c-9.855-6.317-17.891-15.047-26.49-29.863c-9.954-16.37-25.663-23.48-43.918-23.48
			c-8.698,0-16.866,2.282-24.109,6.019c-28.64,14.915-62.736,23.745-99.445,23.745l-41.405,0.033
			c79.437,235.433,302.038,404.956,564.292,404.956c209.472,0,393.645-108.176,499.77-271.712
			C1320.008,3289.803,1295.7,3286.464,1271.062,3286.464L1271.062,3286.464z"/>
		<path id="path3075" d="M973.058,3240.031c-0.529,0-1.025,0.231-1.389,0.595c-7.706,8.962-11.046,11.906-16.602,16.37
			c-13.427,10.814-28.772-1.389-38.594-7.176c-21.86-12.832-39.454-4.729-43.72,5.192c-4.266,10.021,0.463,22.025,12.369,20.438
			c16.668-2.15,17.395,0.43,29.466,8.069c22.455,14.22,38.826,6.482,47.192-0.231c6.978-5.556,10.847-10.285,14.485-17.065
			c6.449-12.732,1.19-22.819-1.885-25.795C973.984,3240.229,973.521,3240.031,973.058,3240.031L973.058,3240.031z"/>
		<path id="path3077" d="M843.221,2376.215c-328.793,0-595.313,266.52-595.313,595.28c0,66.539,10.914,130.565,31.054,190.291
			h41.405c36.709,0,70.805-8.83,99.445-23.745c7.243-3.704,15.411-6.019,24.109-6.019c18.288,0,33.964,7.11,43.918,23.48
			c8.598,14.849,16.635,23.58,26.49,29.83c8.466,5.424,20.107,9.921,36.709,9.161c7.805-0.364,19.677-2.249,22.654-10.417
			c3.406-9.359-0.86-16.437-12.269-21.166c-16.106-6.713-20.471-16.569-29.036-31.781c-8.565-15.18-27.052-23.216-29.929-51.789
			c-2.877-28.144,19.181-63.563,62.736-52.252c31.484,8.135,51.822,47.027,59.429,60.355c4.002,7.011,18.057,15.213,29.466,4.795
			c11.377-10.484,21.86-10.484,30.425,2.844c7.309,11.344,60.851,82.711,118.824,84.596c58.933,1.885,90.317-13.328,115.98-12.369
			c18.024,0.694,26.721,9.756,37.04,11.409c18.09,2.844,30.922-13.493,50.896-12.534c16.139,0.794,33.733,11.575,51.789,11.575
			c18.057,0,56.122-21.794,55.592-12.799c-0.926,15.874-13.162,44.051-16.139,57.014c-2.083,8.995-0.265,30.855-5.655,48.284
			c-4.828,17.825-21.43,40.38-25.696,46.828c-14.584,21.86-25.167,28.408-37.073,51.326c-13.295,25.663-35.155,49.408-40.876,57.015
			c-7.309,9.723,41.273-0.298,58.47-16.635c14.651-13.923,40.248-55.725,80.793-64.654c27.35-6.019,32.84-16.502,29.499-26.192
			c-0.496-1.124-0.86-2.513-0.86-3.869c0-3.704,2.216-6.945,5.324-8.532c28.243-11.74,66.572-19.049,108.672-19.049
			c24.605,0,48.945,3.274,71.897,8.598c60.421-93.194,95.509-204.28,95.509-323.601
			C1438.501,2642.735,1171.981,2376.215,843.221,2376.215L843.221,2376.215z"/>
		<path id="path3079" fill="#CC0000" d="M1179.124,2813.117c-5.887,19.777-14.254,45.076-51.459,64.158
			c-5.424,2.778-7.507-1.786-4.994-6.052c14.055-23.91,16.569-29.896,20.669-39.354c5.721-13.791,8.731-33.435-2.646-74.377
			c-22.389-80.561-69.085-188.241-103.049-223.197c-32.74-33.699-92.103-43.191-145.777-29.433
			c-19.776,5.06-58.437,25.167-130.102,9.028c-124.083-27.945-142.47,34.196-149.581,61.248
			c-7.143,27.085-24.241,104.009-24.241,104.009c-5.688,31.352-13.162,85.82,179.51,122.528
			c89.755,17.098,94.319,40.281,98.287,56.981c7.143,29.896,18.52,47.027,31.351,55.56c12.832,8.565,0,15.643-14.221,17.098
			c-38.23,3.969-179.51-36.543-263.081-84.034c-68.391-41.802-69.515-79.404-53.873-111.35
			c-103.281-11.178-180.833,9.69-194.855,58.569c-24.109,83.901,184.504,227.265,422.053,299.194
			c249.29,75.469,505.723,22.786,534.23-133.938C1340.213,2888.585,1280.255,2835.936,1179.124,2813.117L1179.124,2813.117z
			 M796.889,2659.667c-68.755,4.961-75.898,12.402-88.763,26.126c-18.156,19.347-42.099-25.101-42.099-25.101
			c-14.353-3.01-31.748-26.159-22.389-47.788c9.26-21.364,26.325-14.981,31.682-8.301c6.515,8.103,20.405,21.364,38.462,20.901
			c18.057-0.463,38.858-4.266,67.895-4.266c29.433,0,49.21,10.98,50.334,20.438C833.003,2649.713,829.629,2657.286,796.889,2659.667
			L796.889,2659.667z M945.61,2591.21c-12.336-0.298-23.943-2.083-33.931-4.961c-1.191-0.298-2.017-1.323-2.017-2.513
			s0.86-2.216,2.05-2.513c23.811-5.523,39.884-14.518,38.726-23.017c-1.488-11.277-32.641-17.428-69.549-13.725
			c-4.035,0.43-7.97,0.926-11.806,1.521c-0.099,0-0.198,0.033-0.298,0.033c-1.058,0-1.918-0.827-1.918-1.819
			c0-0.728,0.43-1.356,1.091-1.653c13.328-7.044,33.203-12.633,55.989-14.948c6.846-0.695,13.493-1.058,19.942-1.091h3.406
			c38.164,0.86,68.689,16.04,68.259,33.865C1015.092,2578.312,983.807,2592.07,945.61,2591.21L945.61,2591.21z"/>
	</g>
	<g id="g3081">
		<path id="path3083" d="M1741.928,3009.063c0-54.6-1.124-94.749-3.34-131.061h89.292l3.836,77.453h2.91
			c20.074-57.412,67.63-86.679,111.648-86.679c10.087,0,15.94,0.364,24.175,2.216v97.13c-9.657-1.885-18.652-2.943-31.054-2.943
			c-49.144,0-83.24,31.252-92.434,78.015c-1.753,9.095-2.679,20.008-2.679,31.12v211.49H1741.1L1741.928,3009.063L1741.928,3009.063
			z"/>
		<path id="path3085" d="M2094.961,3109.666c2.712,73.914,59.925,106.224,125.968,106.224c47.424,0,81.355-7.441,112.541-18.884
			l15.246,70.938c-34.89,14.816-83.339,25.862-142.503,25.862c-132.449,0-210.001-81.785-210.001-206.727
			c0-112.574,68.292-219.063,199.452-219.063c132.615,0,175.773,109.068,175.773,198.36c0,19.148-1.72,34.559-3.671,44.051
			L2094.961,3109.666L2094.961,3109.666z M2274.305,3037.835c0.463-37.801-15.973-99.379-85.026-99.379
			c-63.496,0-89.887,57.577-94.517,99.379H2274.305z"/>
		<path id="path3087" d="M3592.386,3188.871c0,32.277,1.29,65.679,5.953,96.964h-37.172l-5.92-58.503h-1.918
			c-19.777,31.45-65.25,67.762-130.135,67.762c-82.115,0-120.346-57.742-120.346-112.177c0-94.219,83.174-150.969,249.191-149.217
			v-10.914c0-40.38-7.838-120.908-104.406-120.28c-35.717,0-72.922,9.558-102.454,30.425l-12.865-29.367
			c37.271-25.266,82.843-35.254,119.75-35.254c117.799,0,140.321,88.432,140.321,161.354L3592.386,3188.871L3592.386,3188.871z
			 M3552.039,3067.665c-88.895-2.547-206.231,10.914-206.231,108.903c0,58.668,38.727,85.026,81.222,85.026
			c68.028,0,106.687-42.099,120.775-81.851c2.944-8.698,4.233-17.462,4.233-24.439v-87.639H3552.039z"/>
		<path id="path3089" d="M3753.112,2787.686v89.954h116.344v32.74h-116.344v265.296c0,51.888,16.105,84.43,59.958,84.43
			c21.033,0,35.915-2.778,46.365-6.383l4.895,31.252c-13.196,5.523-31.682,9.822-56.32,9.822c-29.797,0-54.501-9.392-70.441-28.937
			c-18.487-21.43-24.803-55.692-24.803-97.328v-258.12h-68.887v-32.74h68.887v-75.038L3753.112,2787.686L3753.112,2787.686z"/>
		<path id="path3091" d="M3920.451,3264.108h5.358l8.102,13.295h5.226l-8.764-13.559c4.564-0.562,8.003-2.943,8.003-8.4
			c0-6.118-3.638-8.731-10.847-8.731h-11.707v30.69h4.663v-13.295H3920.451z M3920.451,3260.139v-9.524h6.316
			c3.208,0,6.713,0.728,6.713,4.498c0,4.729-3.506,5.027-7.474,5.027L3920.451,3260.139L3920.451,3260.139z"/>
		<path id="path3093" d="M3956.168,3262.057c0,16.569-13.493,30.062-30.095,30.062c-16.569,0-30.095-13.493-30.095-30.062
			c0-16.602,13.526-30.095,30.095-30.095C3942.675,3231.963,3956.168,3245.456,3956.168,3262.057z M3926.073,3237.287
			c-13.724,0-24.77,11.079-24.77,24.77c0,13.658,11.046,24.671,24.77,24.671c13.658,0,24.737-11.013,24.737-24.671
			C3950.81,3248.365,3939.699,3237.287,3926.073,3237.287z"/>
		<path id="path3095" d="M2712.696,2921.888h-1.687c-18.255-30.128-58.469-53.112-114.294-53.112
			c-98.089,0-183.478,81.156-182.85,217.806c0,125.373,77.122,208.414,174.516,208.414c58.866,0,108.043-28.044,132.417-73.749
			h1.819l4.63,64.588h91.872c-1.885-27.713-3.406-72.624-3.406-114.393v-449.965l-103.083-29.599v230.01L2712.696,2921.888
			L2712.696,2921.888z M2712.696,3109.004c0,10.814-0.761,20.868-3.109,30.095c-10.385,44.646-46.862,73.385-89.061,73.385
			c-64.918,0-102.09-54.733-102.09-129.672c0-75.667,36.841-134.236,103.248-134.236c46.366,0,79.569,32.674,88.697,72.393
			c1.753,8.367,2.315,18.652,2.315,26.92V3109.004L2712.696,3109.004z"/>
		<path id="path3097" d="M3088.383,2868.313c-31.054,0-58.866,8.962-82.248,23.381c-24.274,14.22-44.018,36.146-55.758,58.866
			h-1.621v-190.853l-40.38-11.608v537.736h40.38v-249.62c0-16.569,1.257-28.077,5.49-40.215
			c17.428-50.764,65.282-92.434,123.124-92.434c83.571,0,112.475,67.002,112.475,140.519v241.75h40.347v-246.214
			C3230.158,2887.593,3127.043,2868.313,3088.383,2868.313z"/>
	</g>
</g>
</svg>
