<?xml version="1.0" encoding="UTF-8" standalone="no"?>
<svg xmlns:rdf="http://www.w3.org/1999/02/22-rdf-syntax-ns#" xmlns="http://www.w3.org/2000/svg" enable-background="new -0.866 -0.866 285 285" xml:space="preserve" height="285px" width="285px" version="1.1" y="0px" x="0px" xmlns:cc="http://creativecommons.org/ns#" xmlns:dc="http://purl.org/dc/elements/1.1/" viewBox="-0.866 -0.866 285 285"><path fill="#dd4814" d="m283.46 141.73c0.77362 55.733-35.05 109.48-86.565 130.59-50.61 22.05-113.48 10.64-152.96-27.99-40.002-37.18-54.598-98.42-35.926-149.7 18.054-53.15 70.268-92.34 126.43-94.446 54.59-3.5279 109.15 28.113 133.52 77.025 10.21 19.87 15.54 42.191 15.5 64.521z"/><path fill="#fff" d="m45.356 122.81c-15.369-0.80123-24.993 19.607-14.603 30.958 9.1117 12.283 30.823 6.8943 33.138-8.2218 2.64-11.35-6.882-23.04-18.535-22.74zm135.11 86.002c-13.709 6.9894-11.837 29.469 2.8326 34.103 14.03 6.0818 30.136-9.439 24.582-23.685-3.39-11.14-17.48-16.5-27.42-10.42zm-94.012-67.08c-0.15981-17.723 8.9513-35.135 23.504-45.221-4.6113-7.7243-9.2227-15.449-13.834-23.173-16.662 11.065-29.05 28.395-33.995 47.788 14.924 10.696 10.002 32.208 0.49964 43.062 5.2311 18.652 17.368 35.225 33.494 45.94 4.6117-7.725 9.2233-15.45 13.835-23.175-14.57-10.11-23.647-27.46-23.502-45.22zm55.275-55.275c27.754-0.65135 53.222 22.683 55.047 50.373l26.968-0.394c-1.18-19.98-10.1-39.337-24.42-53.313-17.44 8.049-32.48-8.723-38.26-21.283-18.55-4.54-38.67-2.327-55.76 6.206 4.382 7.8533 8.764 15.707 13.146 23.56 7.2622-3.3892 15.27-5.1532 23.284-5.143zm0 110.55c-10.332 2.9-24.06-11.991-27.583 2.5584-2.9502 5.2869-5.9003 10.574-8.8505 15.861 17.906 8.9454 39.127 10.926 58.394 5.521 1.8222-18.149 22.763-24.803 36.928-21.903 13.57-13.855 21.972-32.646 23.125-52.016l-26.968-0.394c-1.9806 27.864-27.084 50.881-55.046 50.373zm38.73-122.35c12.907 8.3788 31.44-4.4817 28.12-19.504-1.75-15.192-23.24-21.379-32.8-9.446-7.96 8.506-5.56 23.39 4.68 28.95z"/></svg>
