<?xml version="1.0" encoding="UTF-8" standalone="no"?>
<svg xmlns:rdf="http://www.w3.org/1999/02/22-rdf-syntax-ns#" xmlns="http://www.w3.org/2000/svg" version="1.0" xmlns:cc="http://creativecommons.org/ns#" xmlns:dc="http://purl.org/dc/elements/1.1/" viewBox="0 0 180 180">
 <path d="m91.596 7.5275c-6.488 15.952-12.72 32.022-20.093 47.594 6.4263 6.9329 13.538 13.24 21.312 18.625-8.431-3.487-16.693-7.673-23.719-13.563-18.767 38.582-39.826 75.986-60.562 113.53 20.736-11.76 42.144-23.52 65.781-28.15-2.8605-13.281-1.1699-29.808 10.136-38.77 7.1566-5.4861 17.019-0.54636 20.698 6.69 5.6957 9.583 6.7712 21.419 4.5412 32.205 23.34 4.756 44.487 16.384 65 28.031-4.708-8.666-9.3821-17.35-14.062-26.031-8.9565-7.4141-18.205-14.622-28.688-19.781 7.2202 1.0388 18.545 7.1631 22.357 8.0346-21.96-40.941-43.97-81.967-61.309-125.13l-0.68953-1.623-0.70536-1.657z" fill-rule="evenodd" fill="#1793d1"/>
</svg>
