<?xml version="1.0" encoding="UTF-8" standalone="no"?>
<svg xmlns:rdf="http://www.w3.org/1999/02/22-rdf-syntax-ns#" xmlns="http://www.w3.org/2000/svg" version="1.1" xmlns:cc="http://creativecommons.org/ns#" xmlns:dc="http://purl.org/dc/elements/1.1/" viewBox="0 0 128 128">
 <defs>
  <clipPath>
   <g transform="matrix(.99477 0 0 1 1.7861 0)">
    <path d="m322.54 2800.9-4.435 5.7298-4.435-5.7298v-43.143h-18.94l23.375-25.537 23.131 25.537h-18.696v43.143z" fill-rule="evenodd" fill="#efa724"/>
   </g>
  </clipPath>
 </defs>
 <g transform="translate(0 -924.36)">
  <g transform="matrix(.79917 0 0 .79918 82.387 181.89)">
   <g transform="matrix(0 -1 1 0 -1934.5 1337.5)">
    <g transform="translate(16.28 -899.17)">
     <g transform="matrix(1.0667 0 0 1 -26.936 -.000041328)">
      <path d="m323.37 2798.2c-1.802 1.9335-3.6041 3.867-5.4062 5.8005-5.8087-3.5424-5.6939-10.011-5.4062-15.901v-30.726h-18.013c7.8065-8.2993 15.613-16.599 23.419-24.898 7.675 8.2993 15.35 16.599 23.025 24.898h-17.619c0 13.609-0.00001 27.217-0.00001 40.826z" fill-rule="evenodd" fill="#932279"/>
     </g>
    </g>
   </g>
   <g transform="translate(-351.31 -902.56)">
    <g transform="translate(16.28 -899.17)">
     <g transform="matrix(1.0667 0 0 1 -26.936 -.000041328)">
      <path d="m323.37 2798.2c-1.802 1.9335-3.6041 3.867-5.4062 5.8005-5.8087-3.5424-5.6939-10.011-5.4062-15.901v-30.726h-18.013c7.8065-8.2993 15.613-16.599 23.419-24.898 7.675 8.2993 15.35 16.599 23.025 24.898h-17.619c0 13.609-0.00001 27.217-0.00001 40.826z" fill-rule="evenodd" fill="#efa724"/>
     </g>
    </g>
   </g>
   <g transform="matrix(0 1 -1 0 2787.9 696.93)">
    <g transform="matrix(1.0667 0 0 1 -26.936 -.000041328)">
     <path d="m323.37 2798.2c-1.802 1.9335-3.6041 3.867-5.4062 5.8005-5.8087-3.5424-5.6939-10.011-5.4062-15.901v-30.726h-18.013c7.8065-8.2993 15.613-16.599 23.419-24.898 7.675 8.2993 15.35 16.599 23.025 24.898h-17.619c0 13.609-0.00001 27.217-0.00001 40.826z" fill-rule="evenodd" fill="#262577"/>
    </g>
   </g>
   <g transform="matrix(-1 0 0 -1 305.52 2920.7)">
    <g transform="translate(16.28 -899.17)">
     <g transform="matrix(1.0667 0 0 1 -26.936 -.000041328)">
      <path d="m323.37 2798.2c-1.802 1.9335-3.6041 3.867-5.4062 5.8005-5.8087-3.5424-5.6939-10.011-5.4062-15.901v-30.726h-18.013c7.8065-8.2993 15.613-16.599 23.419-24.898 7.675 8.2993 15.35 16.599 23.025 24.898h-17.619c0 13.609-0.00001 27.217-0.00001 40.826z" fill-rule="evenodd" fill="#9ccd2a"/>
     </g>
    </g>
   </g>
   <g transform="translate(-749.8 -1331.6)" stroke="#fff" stroke-width="3.5433">
    <path d="m671.98 2285.8h49.606v49.606h-49.606v-49.606z" fill="#9ccd2a"/>
    <path d="m732.22 2285.8h49.606v49.606h-49.606v-49.606z" fill="#932279"/>
    <path d="m732.22 2346h49.606v49.606h-49.606v-49.606z" fill="#efa724"/>
    <path d="m671.98 2346h49.606v49.606h-49.606v-49.606z" fill="#262577"/>
   </g>
   <g stroke="#fff" fill="none">
    <path d="m-100.56 1009.1l35.077-35.077 35.077 35.077-35.077 35.077-35.077-35.077z" stroke-width="3.5433"/>
    <path d="m-57.971 966.47l35.077-35.077 35.077 35.077-35.077 35.077-35.077-35.077z" stroke-width="3.5431"/>
    <path d="m-15.378 1009.1l35.077-35.077 35.077 35.077-35.077 35.077-35.077-35.077z" stroke-width="3.5433"/>
    <path d="m-57.971 1051.7l35.077-35.077 35.077 35.077-35.077 35.077-35.077-35.077z" stroke-width="3.5433"/>
   </g>
  </g>
 </g>
</svg>
