<?xml version="1.0" encoding="UTF-8" standalone="no"?>
<svg xmlns:rdf="http://www.w3.org/1999/02/22-rdf-syntax-ns#" xmlns="http://www.w3.org/2000/svg" version="1.0" xmlns:cc="http://creativecommons.org/ns#" xmlns:xlink="http://www.w3.org/1999/xlink" viewBox="0 0 267 267" xmlns:dc="http://purl.org/dc/elements/1.1/">
 <path fill="#294172" d="m266.63 133.51c0-73.529-59.61-133.13-133.13-133.13-73.493-0.00417-133.07 59.551-133.13 133.03l0.00425 103.02c0.03955 16.69 13.571 30.19 30.266 30.19h102.91c73.5-0.02 133.08-59.61 133.08-133.11"/>
 <path id="a" d="m77.126 142.1h47.844v47.84c0 26.41-21.43 47.85-47.844 47.85-26.41 0-47.844-21.44-47.844-47.85s21.434-47.84 47.844-47.84z" stroke="#3c6eb4" stroke-width="29.21" fill="none"/>
 <use xlink:href="#a" transform="matrix(-1 0 0 -1 249.71 284.29)"/>
 <path id="b" fill="#fff" d="m139.61 127.53v62.35c0 34.5-27.98 62.48-62.483 62.48-5.235 0-8.957-0.6-13.803-1.86-7.066-1.85-12.84-7.64-12.842-14.38 0-8.15 5.912-14.07 14.75-14.07 4.206 0 5.733 0.8 11.895 0.8 18.191 0 32.943-14.73 32.983-32.92v-28.66c0-2.57-2.09-4.65-4.66-4.65h-21.668c-8.072 0-14.594-6.44-14.594-14.53-0.004-8.15 6.589-14.56 14.749-14.56"/>
 <use xlink:href="#b" transform="matrix(-1 0 0 -1 249.71 284.29)"/>
 <path fill="#3c6eb4" d="m243.65 243.58v-5.53l-2.52 5.8s-2.47-5.8-2.47-5.8l0.01 5.53h-1.42v-8.73h1.48l2.44 5.58 2.39-5.58h1.51v8.73h-1.42zm-10.33-7.27v7.27h-1.48v-7.27h-2.49v-1.46h6.45v1.46"/>
</svg>
