<svg id="Layer_1" xmlns:rdf="http://www.w3.org/1999/02/22-rdf-syntax-ns#" xmlns="http://www.w3.org/2000/svg" enable-background="new 0 0 184 108" xml:space="preserve" viewBox="0 0 18 6" height="100%" width="100%" version="1.1" y="0px" x="0px" xmlns:cc="http://creativecommons.org/ns#" xmlns:dc="http://purl.org/dc/elements/1.1/"><metadata id="metadata3103"><rdf:RDF><cc:Work rdf:about=""><dc:format>image/svg+xml</dc:format><dc:type rdf:resource="http://purl.org/dc/dcmitype/StillImage"/><dc:title/></cc:Work></rdf:RDF></metadata><g id="g3065" transform="matrix(0.14385089,0,0,0.14385089,-4.228137,-4.7136996)"><g id="g3067"><path id="path3069" d="m71.819,62.823h0.162l0.245,0.402h0.158l-0.265-0.41c0.138-0.016,0.242-0.089,0.242-0.254,0-0.185-0.109-0.264-0.328-0.264h-0.354v0.928h0.14v-0.402zm0-0.119v-0.288h0.192c0.098,0,0.203,0.022,0.203,0.137,0,0.142-0.106,0.152-0.226,0.152h-0.169z"/><path id="path3071" d="m72.895,62.762c0,0.501-0.408,0.909-0.91,0.909s-0.91-0.408-0.91-0.909c0-0.502,0.408-0.91,0.91-0.91,0.503,0,0.91,0.408,0.91,0.91zm-0.91-0.749c-0.414,0-0.749,0.335-0.749,0.75,0,0.413,0.335,0.746,0.749,0.746,0.413,0,0.748-0.334,0.748-0.746,0-0.415-0.335-0.75-0.748-0.75z"/><path id="path3073" fill="#FFF" d="m66.938,63.524c-1.273,0-2.432,0.22-3.286,0.577-0.094,0.047-0.161,0.145-0.161,0.257,0,0.041,0.01,0.082,0.026,0.118,0.101,0.293-0.065,0.61-0.892,0.792-1.226,0.269-2,1.535-2.443,1.955-0.52,0.494-1.989,0.797-1.768,0.503,0.173-0.23,0.834-0.948,1.236-1.724,0.36-0.694,0.68-0.891,1.121-1.553,0.129-0.194,0.631-0.876,0.777-1.415,0.164-0.526,0.109-1.187,0.171-1.459,0.09-0.393,0.461-1.244,0.488-1.724,0.016-0.272-1.135,0.388-1.681,0.388s-1.078-0.328-1.566-0.351c-0.604-0.028-0.992,0.466-1.539,0.38-0.312-0.05-0.575-0.325-1.12-0.345-0.776-0.028-1.725,0.432-3.507,0.374-1.753-0.057-3.372-2.216-3.593-2.559-0.259-0.402-0.575-0.402-0.92-0.086s-0.77,0.067-0.891-0.145c-0.23-0.402-0.845-1.577-1.797-1.824-1.317-0.341-1.983,0.729-1.897,1.58,0.088,0.864,0.646,1.107,0.905,1.566,0.258,0.46,0.391,0.756,0.878,0.959,0.345,0.145,0.473,0.357,0.371,0.64-0.09,0.247-0.449,0.303-0.685,0.315-0.502,0.024-0.853-0.112-1.11-0.276-0.298-0.191-0.541-0.455-0.801-0.903-0.301-0.495-0.776-0.71-1.328-0.71-0.263,0-0.51,0.069-0.729,0.182-0.866,0.451-1.897,0.718-3.007,0.718l-1.252,0.001c2.402,7.119,9.133,12.245,17.063,12.245,6.334,0,11.903-3.271,15.112-8.216-0.695-0.159-1.43-0.26-2.175-0.26z"/><path id="path3075" d="m57.927,62.12c-0.016,0-0.031,0.007-0.042,0.018-0.233,0.271-0.334,0.36-0.502,0.495-0.406,0.327-0.87-0.042-1.167-0.217-0.661-0.388-1.193-0.143-1.322,0.157-0.129,0.303,0.014,0.666,0.374,0.618,0.504-0.065,0.526,0.013,0.891,0.244,0.679,0.43,1.174,0.196,1.427-0.007,0.211-0.168,0.328-0.311,0.438-0.516,0.195-0.385,0.036-0.69-0.057-0.78-0.012-0.006-0.026-0.012-0.04-0.012z"/><path id="path3077" d="M54.001,36c-9.942,0-18.001,8.059-18.001,18,0,2.012,0.33,3.948,0.939,5.754h1.252c1.11,0,2.141-0.267,3.007-0.718,0.219-0.112,0.466-0.182,0.729-0.182,0.553,0,1.027,0.215,1.328,0.71,0.26,0.449,0.503,0.713,0.801,0.902,0.256,0.164,0.608,0.3,1.11,0.277,0.236-0.011,0.595-0.068,0.685-0.315,0.103-0.283-0.026-0.497-0.371-0.64-0.487-0.203-0.619-0.501-0.878-0.961-0.259-0.459-0.818-0.702-0.905-1.566-0.087-0.851,0.58-1.922,1.897-1.58,0.952,0.246,1.567,1.422,1.797,1.825,0.121,0.212,0.546,0.46,0.891,0.145,0.344-0.317,0.661-0.317,0.92,0.086,0.221,0.343,1.84,2.501,3.593,2.558,1.782,0.057,2.731-0.403,3.507-0.374,0.545,0.021,0.808,0.295,1.12,0.345,0.547,0.086,0.935-0.408,1.539-0.379,0.488,0.024,1.02,0.35,1.566,0.35s1.697-0.659,1.681-0.387c-0.028,0.48-0.398,1.332-0.488,1.724-0.063,0.272-0.008,0.933-0.171,1.46-0.146,0.539-0.648,1.221-0.777,1.416-0.441,0.661-0.761,0.859-1.121,1.552-0.402,0.776-1.063,1.494-1.236,1.724-0.221,0.294,1.248-0.009,1.768-0.503,0.443-0.421,1.217-1.685,2.443-1.955,0.827-0.182,0.993-0.499,0.892-0.792-0.015-0.034-0.026-0.076-0.026-0.117,0-0.112,0.067-0.21,0.161-0.258,0.854-0.355,2.013-0.576,3.286-0.576,0.744,0,1.48,0.099,2.174,0.26,1.827-2.818,2.888-6.177,2.888-9.785,0-9.941-8.059-18-18-18z"/><path id="path3079" fill="#C00" d="m64.158,49.211c-0.178,0.598-0.431,1.363-1.556,1.94-0.164,0.084-0.227-0.054-0.151-0.183,0.425-0.723,0.501-0.904,0.625-1.19,0.173-0.417,0.264-1.011-0.08-2.249-0.677-2.436-2.089-5.692-3.116-6.749-0.99-1.019-2.785-1.306-4.408-0.89-0.598,0.153-1.767,0.761-3.934,0.273-3.752-0.845-4.308,1.034-4.523,1.852-0.216,0.819-0.733,3.145-0.733,3.145-0.172,0.948-0.398,2.595,5.428,3.705,2.714,0.517,2.852,1.218,2.972,1.723,0.216,0.904,0.56,1.422,0.948,1.68,0.388,0.259,0,0.473-0.43,0.517-1.156,0.12-5.428-1.105-7.955-2.541-2.068-1.264-2.102-2.401-1.629-3.367-3.123-0.338-5.468,0.293-5.892,1.771-0.729,2.537,5.579,6.872,12.762,9.047,7.538,2.282,15.292,0.689,16.154-4.05,0.389-2.152-1.424-3.744-4.482-4.434zm-11.558-4.64c-2.079,0.15-2.295,0.375-2.684,0.79-0.549,0.585-1.273-0.759-1.273-0.759-0.434-0.091-0.96-0.791-0.677-1.445,0.28-0.646,0.796-0.453,0.958-0.251,0.197,0.245,0.617,0.646,1.163,0.632s1.175-0.129,2.053-0.129c0.89,0,1.488,0.332,1.522,0.618,0.03,0.243-0.072,0.472-1.062,0.544zm4.497-2.07c-0.373-0.009-0.724-0.063-1.026-0.15-0.036-0.009-0.061-0.04-0.061-0.076s0.026-0.067,0.062-0.076c0.72-0.167,1.206-0.439,1.171-0.696-0.045-0.341-0.987-0.527-2.103-0.415-0.122,0.013-0.241,0.028-0.357,0.046-0.003,0-0.006,0.001-0.009,0.001-0.032,0-0.058-0.025-0.058-0.055,0-0.022,0.013-0.041,0.033-0.05,0.403-0.213,1.004-0.382,1.693-0.452,0.207-0.021,0.408-0.032,0.603-0.033h0.103c1.154,0.026,2.077,0.485,2.064,1.024-0.014,0.542-0.96,0.958-2.115,0.932z"/></g><g id="g3081"><path id="path3083" d="m81.176,55.136c0-1.651-0.034-2.865-0.101-3.963h2.7l0.116,2.342h0.088c0.607-1.736,2.045-2.621,3.376-2.621,0.305,0,0.482,0.011,0.731,0.067v2.937c-0.292-0.057-0.564-0.089-0.939-0.089-1.486,0-2.517,0.945-2.795,2.359-0.053,0.275-0.081,0.605-0.081,0.941v6.395h-3.12l0.025-8.368z"/><path id="path3085" d="m91.851,58.178c0.082,2.235,1.812,3.212,3.809,3.212,1.434,0,2.46-0.225,3.403-0.571l0.461,2.145c-1.055,0.448-2.52,0.782-4.309,0.782-4.005,0-6.35-2.473-6.35-6.251,0-3.404,2.065-6.624,6.031-6.624,4.01,0,5.315,3.298,5.315,5.998,0,0.579-0.052,1.045-0.111,1.332l-8.249-0.023zm5.423-2.172c0.014-1.143-0.483-3.005-2.571-3.005-1.92,0-2.718,1.741-2.858,3.005h5.429z"/><path id="path3087" d="m137.13,60.573c0,0.976,0.039,1.986,0.18,2.932h-1.124l-0.179-1.769h-0.058c-0.598,0.951-1.973,2.049-3.935,2.049-2.483,0-3.639-1.746-3.639-3.392,0-2.849,2.515-4.565,7.535-4.512v-0.33c0-1.221-0.237-3.656-3.157-3.637-1.08,0-2.205,0.289-3.098,0.92l-0.389-0.888c1.127-0.764,2.505-1.066,3.621-1.066,3.562,0,4.243,2.674,4.243,4.879v4.814zm-1.22-3.665c-2.688-0.077-6.236,0.33-6.236,3.293,0,1.774,1.171,2.571,2.456,2.571,2.057,0,3.226-1.273,3.652-2.475,0.089-0.263,0.128-0.528,0.128-0.739v-2.65z"/><path id="path3089" d="m141.99,48.442v2.72h3.518v0.99h-3.518v8.022c0,1.569,0.487,2.553,1.813,2.553,0.636,0,1.086-0.084,1.402-0.193l0.148,0.945c-0.399,0.167-0.958,0.297-1.703,0.297-0.901,0-1.648-0.284-2.13-0.875-0.559-0.648-0.75-1.684-0.75-2.943v-7.805h-2.083v-0.99h2.083v-2.269l1.22-0.452z"/><path id="path3091" d="m147.05,62.848h0.162l0.245,0.402h0.158l-0.265-0.41c0.138-0.017,0.242-0.089,0.242-0.254,0-0.185-0.11-0.264-0.328-0.264h-0.354v0.928h0.141v-0.402zm0-0.12v-0.288h0.191c0.097,0,0.203,0.022,0.203,0.136,0,0.143-0.106,0.152-0.226,0.152h-0.168z"/><path id="path3093" d="m148.13,62.786c0,0.501-0.408,0.909-0.91,0.909-0.501,0-0.91-0.408-0.91-0.909,0-0.502,0.409-0.91,0.91-0.91,0.502,0,0.91,0.408,0.91,0.91zm-0.91-0.749c-0.415,0-0.749,0.335-0.749,0.749,0,0.413,0.334,0.746,0.749,0.746,0.413,0,0.748-0.333,0.748-0.746,0-0.414-0.336-0.749-0.748-0.749z"/><path id="path3095" d="m110.53,52.5h-0.051c-0.552-0.911-1.768-1.606-3.456-1.606-2.966,0-5.548,2.454-5.529,6.586,0,3.791,2.332,6.302,5.277,6.302,1.78,0,3.267-0.848,4.004-2.23h0.055l0.14,1.953h2.778c-0.057-0.838-0.103-2.196-0.103-3.459v-13.606l-3.117-0.895v6.955zm0,5.658c0,0.327-0.023,0.631-0.094,0.91-0.314,1.35-1.417,2.219-2.693,2.219-1.963,0-3.087-1.655-3.087-3.921,0-2.288,1.114-4.059,3.122-4.059,1.402,0,2.406,0.988,2.682,2.189,0.053,0.253,0.07,0.564,0.07,0.814v1.848z"/><path id="path3097" d="m121.89,50.88c-0.939,0-1.78,0.271-2.487,0.707-0.734,0.43-1.331,1.093-1.686,1.78h-0.049v-5.771l-1.221-0.351v16.26h1.221v-7.548c0-0.501,0.038-0.849,0.166-1.216,0.527-1.535,1.974-2.795,3.723-2.795,2.527,0,3.401,2.026,3.401,4.249v7.31h1.22v-7.445c-0.001-4.597-3.119-5.18-4.288-5.18z"/></g></g></svg>
